<svg xmlns="http://www.w3.org/2000/svg" width="1200" height="630" viewBox="0 0 1200 630">
  <defs>
    <radialGradient id="glow" cx="50%" cy="20%" r="70%">
      <stop offset="0%" stop-color="#76B900" stop-opacity="0.35"/>
      <stop offset="100%" stop-color="#76B900" stop-opacity="0"/>
    </radialGradient>
  </defs>
  <rect width="1200" height="630" fill="#0B0D0E"/>
  <rect width="1200" height="630" fill="url(#glow)"/>

  <!-- Brand mark -->
  <g transform="translate(100,120)">
    <rect width="96" height="96" rx="22" fill="#1E2328" stroke="#2A313A" stroke-width="2"/>
    <path d="M48 26 20 40l28 14 28-14-28-14zm0 22.6L26.4 38 48 27.4 69.6 38 48 48.6zM20 52.6l28 14 28-14v6.8L48 84 20 70.6v-18z" fill="#94DA32" transform="translate(0,-2) scale(0.72) translate(18.5,10)"/>
    <circle cx="88" cy="88" r="9" fill="#94DA32" stroke="#0B0D0E" stroke-width="3"/>
  </g>

  <text x="100" y="300" font-family="Arial, sans-serif" font-size="64" font-weight="700" fill="#F2F5F8" letter-spacing="-1.5">Accelerate</text>
  <text x="100" y="360" font-family="Arial, sans-serif" font-size="30" fill="#9EACB9">GPU Infrastructure for Production AI</text>

  <g transform="translate(100,410)">
    <rect width="220" height="44" rx="22" fill="#141719" stroke="#2A313A"/>
    <circle cx="30" cy="22" r="4" fill="#94DA32"/>
    <text x="46" y="28" font-family="monospace" font-size="16" fill="#9EACB9">99.98% uptime</text>
  </g>
  <g transform="translate(340,410)">
    <rect width="220" height="44" rx="22" fill="#141719" stroke="#2A313A"/>
    <text x="20" y="28" font-family="monospace" font-size="16" fill="#9EACB9">Sub-40ms p50 latency</text>
  </g>
</svg>
